<?xml version="1.0" encoding="UTF-8"?>
<!DOCTYPE svg PUBLIC "-//W3C//DTD SVG 1.1//EN" "http://www.w3.org/Graphics/SVG/1.1/DTD/svg11.dtd">
<!-- Creator: CorelDRAW -->
<svg xmlns="http://www.w3.org/2000/svg" xml:space="preserve" width="103.567mm" height="23.5915mm" version="1.1" style="shape-rendering:geometricPrecision; text-rendering:geometricPrecision; image-rendering:optimizeQuality; fill-rule:evenodd; clip-rule:evenodd"
viewBox="0 0 4874.95 1110.47"
 xmlns:xlink="http://www.w3.org/1999/xlink"
 xmlns:xodm="http://www.corel.com/coreldraw/odm/2003">
 <defs>
  <style type="text/css">
   <![CDATA[
    .fil0 {fill:white}
    .fil1 {fill:white;fill-rule:nonzero}
   ]]>
  </style>
 </defs>
 <g id="Layer_x0020_1">
  <metadata id="CorelCorpID_0Corel-Layer"/>
  <g id="_105553324185792">
   <path class="fil0" d="M0.32 641.95l-0.16 465.52 151.89 -0.25 -0.06 -615.42 0 -43.05 331.22 -255.33 194.09 157.82 240.74 0 -432.24 -351.24 -485.79 374.42 0.32 267.53zm666.66 -138.98l-271.36 209.17 0.07 394.58 576.58 0.74 -0.5 -151.73 -424.4 0 0.01 -168.99 368.14 -283.78 -248.54 0z"/>
   <path class="fil0" d="M1230.31 612.9l0 96.14 -66.72 0 0 -288.04 101.47 0c20.27,0 37.7,2.43 52.25,7.24 14.55,4.81 26.52,11.45 35.93,19.87 9.41,8.43 16.32,18.36 20.8,29.88 4.47,11.46 6.71,23.89 6.71,37.18 0,14.35 -2.3,27.57 -6.91,39.55 -4.6,12.05 -11.64,22.31 -21.12,30.85 -9.47,8.56 -21.45,15.27 -35.99,20.08 -14.54,4.8 -31.78,7.24 -51.66,7.24l-34.75 0zm0 -50.54l34.75 0c17.37,0 29.88,-4.15 37.51,-12.44 7.63,-8.29 11.45,-19.88 11.45,-34.75 0,-6.58 -0.98,-12.56 -2.96,-17.96 -1.97,-5.4 -4.93,-10.07 -8.95,-13.95 -4.01,-3.89 -9.08,-6.84 -15.2,-8.95 -6.11,-2.1 -13.42,-3.16 -21.85,-3.16l-34.75 0 0 91.2zm316.67 146.88c-5.79,0 -10.14,-0.79 -13.1,-2.37 -2.97,-1.58 -5.46,-4.87 -7.44,-9.87l-4.35 -11.26c-5.13,4.34 -10.06,8.17 -14.8,11.45 -4.74,3.29 -9.61,6.06 -14.68,8.36 -5.07,2.31 -10.46,4.02 -16.19,5.14 -5.73,1.12 -12.11,1.71 -19.09,1.71 -9.34,0 -17.84,-1.24 -25.47,-3.69 -7.63,-2.43 -14.08,-5.99 -19.41,-10.79 -5.33,-4.74 -9.48,-10.66 -12.37,-17.7 -2.89,-7.04 -4.34,-15.2 -4.34,-24.48 0,-7.24 1.84,-14.68 5.53,-22.38 3.69,-7.63 10.07,-14.61 19.15,-20.86 9.08,-6.32 21.31,-11.51 36.72,-15.79 15.4,-4.22 34.81,-6.33 58.24,-6.33l0 -8.75c0,-12.11 -2.43,-20.86 -7.37,-26.19 -4.94,-5.39 -11.98,-8.09 -21.06,-8.09 -7.24,0 -13.17,0.79 -17.77,2.37 -4.6,1.58 -8.69,3.36 -12.31,5.33 -3.62,1.98 -7.17,3.75 -10.59,5.33 -3.42,1.58 -7.5,2.37 -12.24,2.37 -4.21,0 -7.76,-1.05 -10.73,-3.09 -2.97,-2.04 -5.32,-4.54 -7.04,-7.57l-11.06 -19.15c12.37,-10.99 26.12,-19.15 41.19,-24.54 15.08,-5.34 31.19,-8.03 48.43,-8.03 12.37,0 23.57,2.04 33.5,6.06 9.93,4.01 18.36,9.61 25.27,16.79 6.91,7.16 12.18,15.72 15.86,25.6 3.69,9.87 5.53,20.66 5.53,32.38l0 128.06 -28.03 0zm-70.28 -37.51c7.89,0 14.8,-1.38 20.73,-4.08 5.92,-2.69 11.9,-7.1 17.96,-13.23l0 -28.1c-12.24,0 -22.31,0.79 -30.21,2.36 -7.89,1.58 -14.15,3.56 -18.75,5.99 -4.6,2.37 -7.76,5.06 -9.54,8.09 -1.77,3.03 -2.7,6.39 -2.7,9.94 0,6.98 1.91,11.92 5.72,14.75 3.82,2.82 9.41,4.27 16.79,4.27zm247.17 37.51l-55.68 0 -79.36 -204.92 50.93 0c4.34,0 8.03,1.05 10.99,3.09 2.96,2.04 4.94,4.54 5.99,7.57l28.43 91.86c2.24,7.56 4.41,14.87 6.45,21.98 2.04,7.1 3.75,14.22 5.2,21.32 1.45,-7.11 3.22,-14.22 5.33,-21.32 2.11,-7.1 4.35,-14.41 6.72,-21.98l29.61 -91.86c1.05,-3.03 3.02,-5.53 5.92,-7.57 2.89,-2.04 6.32,-3.09 10.27,-3.09l48.56 0 -79.36 204.92zm168.2 -204.92l0 204.92 -61.21 0 0 -204.92 61.21 0zm7.11 -56.07c0,4.87 -0.98,9.41 -2.96,13.69 -1.98,4.27 -4.68,8.03 -8.1,11.25 -3.41,3.23 -7.37,5.79 -11.91,7.71 -4.54,1.91 -9.4,2.89 -14.54,2.89 -5,0 -9.67,-0.98 -14.02,-2.89 -4.35,-1.91 -8.16,-4.48 -11.51,-7.71 -3.36,-3.22 -6,-6.98 -7.9,-11.25 -1.91,-4.28 -2.9,-8.82 -2.9,-13.69 0,-5 0.99,-9.67 2.9,-14.01 1.9,-4.34 4.54,-8.16 7.9,-11.46 3.35,-3.29 7.16,-5.86 11.51,-7.7 4.34,-1.84 9.01,-2.76 14.02,-2.76 5.14,0 10,0.92 14.54,2.76 4.54,1.84 8.5,4.41 11.91,7.7 3.42,3.29 6.12,7.11 8.1,11.46 1.98,4.34 2.96,9.01 2.96,14.01zm105.42 -34.75l0 295.74 -61.21 0 0 -295.74 61.21 0zm112.53 90.82l0 204.92 -61.2 0 0 -204.92 61.2 0zm7.11 -56.07c0,4.87 -0.99,9.41 -2.97,13.69 -1.98,4.27 -4.67,8.03 -8.1,11.25 -3.42,3.23 -7.37,5.79 -11.91,7.71 -4.54,1.91 -9.41,2.89 -14.54,2.89 -5,0 -9.67,-0.98 -14.02,-2.89 -4.34,-1.91 -8.16,-4.48 -11.51,-7.71 -3.36,-3.22 -5.99,-6.98 -7.9,-11.25 -1.91,-4.28 -2.9,-8.82 -2.9,-13.69 0,-5 0.99,-9.67 2.9,-14.01 1.91,-4.34 4.54,-8.16 7.9,-11.46 3.35,-3.29 7.17,-5.86 11.51,-7.7 4.34,-1.84 9.01,-2.76 14.02,-2.76 5.14,0 10,0.92 14.54,2.76 4.54,1.84 8.49,4.41 11.91,7.7 3.42,3.29 6.12,7.11 8.1,11.46 1.97,4.34 2.97,9.01 2.97,14.01zm99.49 56.07l0 130.03c0,10.2 2.3,18.03 6.91,23.56 4.6,5.53 11.39,8.29 20.33,8.29 6.71,0 13.03,-1.38 18.88,-4.15 5.86,-2.76 11.52,-6.64 17.05,-11.65l0 -146.09 61.2 0 0 204.92 -37.91 0c-7.63,0 -12.63,-3.36 -15,-10.13l-3.75 -11.65c-3.94,3.75 -8.03,7.17 -12.23,10.2 -4.22,3.1 -8.69,5.66 -13.5,7.83 -4.8,2.1 -10,3.82 -15.53,5.07 -5.53,1.25 -11.57,1.84 -18.16,1.84 -11.19,0 -21.06,-1.98 -29.68,-5.86 -8.62,-3.88 -15.93,-9.28 -21.85,-16.25 -5.92,-6.97 -10.39,-15.27 -13.42,-24.75 -3.03,-9.47 -4.54,-19.87 -4.54,-31.19l0 -130.03 61.21 0zm296.93 44.88c-1.58,2.49 -3.23,4.2 -5,5.26 -1.78,1.05 -4.08,1.58 -6.84,1.58 -2.89,0 -5.79,-0.65 -8.68,-1.91 -2.89,-1.25 -5.99,-2.57 -9.35,-4.01 -3.36,-1.45 -7.17,-2.84 -11.38,-4.08 -4.21,-1.26 -9.01,-1.85 -14.41,-1.85 -7.76,0 -13.68,1.52 -17.83,4.48 -4.15,2.96 -6.26,7.04 -6.26,12.31 0,3.81 1.38,6.97 4.08,9.48 2.7,2.57 6.25,4.74 10.72,6.65 4.48,1.9 9.55,3.75 15.2,5.46 5.66,1.71 11.46,3.62 17.37,5.72 5.93,2.1 11.72,4.53 17.37,7.37 5.66,2.83 10.72,6.38 15.2,10.53 4.47,4.15 8.1,9.15 10.79,15.07 2.69,5.92 4.01,13.1 4.01,21.38 0,10.13 -1.84,19.48 -5.53,28.04 -3.69,8.56 -9.15,15.99 -16.46,22.17 -7.31,6.19 -16.32,10.99 -27.04,14.41 -10.73,3.43 -23.1,5.14 -37.04,5.14 -6.98,0 -13.96,-0.65 -20.93,-1.98 -6.97,-1.31 -13.69,-3.09 -20.21,-5.32 -6.51,-2.24 -12.57,-4.94 -18.09,-8.03 -5.53,-3.09 -10.27,-6.39 -14.21,-9.94l14.21 -22.64c1.71,-2.7 3.75,-4.74 6.12,-6.25 2.37,-1.58 5.46,-2.31 9.28,-2.31 3.55,0 6.79,0.79 9.61,2.37 2.84,1.58 5.86,3.29 9.16,5.14 3.28,1.85 7.17,3.55 11.57,5.14 4.41,1.58 9.94,2.37 16.66,2.37 4.73,0 8.75,-0.53 12.04,-1.51 3.29,-0.99 5.92,-2.31 7.9,-4.02 1.97,-1.71 3.41,-3.62 4.34,-5.73 0.92,-2.1 1.38,-4.27 1.38,-6.52 0,-4.07 -1.38,-7.43 -4.14,-10.06 -2.77,-2.63 -6.38,-4.93 -10.86,-6.84 -4.48,-1.91 -9.54,-3.68 -15.27,-5.33 -5.72,-1.65 -11.58,-3.49 -17.5,-5.59 -5.93,-2.1 -11.72,-4.67 -17.44,-7.63 -5.73,-2.97 -10.86,-6.72 -15.34,-11.25 -4.47,-4.54 -8.1,-10.07 -10.86,-16.65 -2.76,-6.58 -4.15,-14.55 -4.15,-23.89 0,-8.68 1.71,-16.98 5.07,-24.81 3.35,-7.83 8.36,-14.67 15.06,-20.59 6.72,-5.92 15.15,-10.66 25.29,-14.14 10.13,-3.49 21.97,-5.2 35.53,-5.2 7.37,0 14.54,0.65 21.45,1.97 6.91,1.31 13.36,3.23 19.41,5.6 6.06,2.36 11.58,5.2 16.58,8.48 5,3.22 9.41,6.78 13.23,10.67l-13.82 21.32zm547.25 561.27c-9.74,0 -18.29,-1.45 -25.73,-4.27 -7.43,-2.83 -13.68,-6.84 -18.75,-12.05 -5.07,-5.2 -8.95,-11.51 -11.58,-18.88 -2.64,-7.37 -3.95,-15.59 -3.95,-24.67l0 -105.96 -17.37 0c-3.16,0 -5.86,-0.99 -8.1,-3.03 -2.24,-1.97 -3.36,-4.93 -3.36,-8.81l0 -23.56 32.58 -6.39 12.04 -50.34c1.57,-6.38 6.05,-9.55 13.42,-9.55l31.98 0 0 59.83 49.75 0 0 41.85 -49.75 0 0 101.67c0,4.74 1.18,8.62 3.48,11.71 2.3,3.1 5.6,4.68 9.93,4.68 2.25,0 4.15,-0.27 5.67,-0.72 1.51,-0.47 2.83,-0.99 3.94,-1.58 1.12,-0.6 2.18,-1.12 3.16,-1.58 0.99,-0.46 2.11,-0.66 3.42,-0.66 1.85,0 3.36,0.4 4.48,1.25 1.12,0.92 2.24,2.24 3.42,4.08l18.56 29.22c-7.9,5.93 -16.79,10.33 -26.66,13.29 -9.88,2.97 -20.07,4.47 -30.61,4.47zm-1711.05 -77.58c1.59,0 3.16,0.26 4.74,0.92 1.57,0.59 3.09,1.64 4.54,3.09l26.45 28.42c-11.58,14.94 -26.06,26.19 -43.49,33.76 -17.44,7.57 -38.11,11.38 -61.93,11.38 -21.84,0 -41.39,-3.75 -58.7,-11.18 -17.3,-7.44 -31.98,-17.7 -44.03,-30.8 -12.05,-13.09 -21.32,-28.62 -27.77,-46.59 -6.45,-18.02 -9.67,-37.5 -9.67,-58.63 0,-21.45 3.68,-41.13 11.06,-59.15 7.37,-17.97 17.7,-33.43 30.92,-46.53 13.23,-13.03 29.03,-23.16 47.45,-30.4 18.42,-7.23 38.75,-10.86 61,-10.86 10.79,0 20.99,0.99 30.53,2.9 9.54,1.9 18.43,4.54 26.72,7.89 8.29,3.36 15.92,7.44 22.9,12.12 6.98,4.67 13.16,9.87 18.56,15.59l-22.5 30.2c-1.45,1.85 -3.16,3.49 -5.13,5.01 -1.98,1.51 -4.74,2.31 -8.29,2.31 -2.37,0 -4.6,-0.53 -6.72,-1.59 -2.1,-1.05 -4.34,-2.37 -6.71,-3.88 -2.37,-1.52 -4.93,-3.16 -7.77,-4.94 -2.82,-1.77 -6.18,-3.42 -10.07,-4.93 -3.87,-1.51 -8.42,-2.76 -13.61,-3.82 -5.2,-1.05 -11.32,-1.58 -18.3,-1.58 -12.11,0 -23.16,2.11 -33.17,6.39 -10,4.27 -18.56,10.4 -25.73,18.36 -7.17,7.96 -12.77,17.63 -16.79,28.95 -4.01,11.33 -6.05,24.02 -6.05,38.11 0,14.73 2.04,27.83 6.05,39.29 4.02,11.45 9.48,21.06 16.39,28.89 6.91,7.83 14.94,13.82 24.15,17.9 9.22,4.08 19.08,6.12 29.62,6.12 6.05,0 11.57,-0.33 16.58,-0.92 4.99,-0.59 9.67,-1.57 13.95,-3.02 4.28,-1.45 8.36,-3.36 12.24,-5.66 3.88,-2.31 7.76,-5.14 11.71,-8.56 1.58,-1.31 3.29,-2.43 5.14,-3.29 1.84,-0.86 3.75,-1.25 5.72,-1.25zm157.34 -133.65c15.53,0 29.68,2.43 42.45,7.3 12.76,4.87 23.76,11.84 32.91,20.92 9.14,9.09 16.25,20.15 21.32,33.1 5.06,13.03 7.56,27.57 7.56,43.76 0,16.39 -2.5,31.06 -7.56,44.23 -5.06,13.1 -12.18,24.21 -21.32,33.36 -9.15,9.15 -20.15,16.19 -32.91,21.13 -12.77,4.93 -26.92,7.43 -42.45,7.43 -15.66,0 -29.87,-2.5 -42.71,-7.43 -12.83,-4.94 -23.89,-11.97 -33.17,-21.13 -9.28,-9.15 -16.45,-20.26 -21.52,-33.36 -5.07,-13.17 -7.63,-27.84 -7.63,-44.23 0,-16.19 2.57,-30.73 7.63,-43.76 5.06,-12.95 12.23,-24.01 21.52,-33.1 9.28,-9.08 20.33,-16.05 33.17,-20.92 12.84,-4.87 27.05,-7.3 42.71,-7.3zm0 165.76c14.08,0 24.48,-4.93 31.13,-14.87 6.65,-9.94 9.94,-25.07 9.94,-45.4 0,-20.26 -3.29,-35.34 -9.94,-45.21 -6.65,-9.87 -17.04,-14.81 -31.13,-14.81 -14.47,0 -25.07,4.94 -31.78,14.81 -6.71,9.88 -10.06,24.95 -10.06,45.21 0,20.33 3.35,35.47 10.06,45.4 6.71,9.94 17.31,14.87 31.78,14.87zm137.8 42.31l0 -204.92 37.91 0c3.81,0 7.04,0.85 9.6,2.57 2.57,1.71 4.35,4.34 5.4,7.77l3.55 11.97c3.95,-3.74 8.03,-7.17 12.24,-10.33 4.21,-3.22 8.75,-5.93 13.55,-8.1 4.81,-2.17 10,-3.88 15.59,-5.13 5.6,-1.26 11.65,-1.9 18.23,-1.9 11.19,0 21.13,1.97 29.75,5.85 8.62,3.88 15.86,9.28 21.78,16.19 5.92,6.91 10.39,15.13 13.42,24.67 3.02,9.55 4.54,19.94 4.54,31.13l0 130.23 -61.2 0 0 -130.09c0,-10 -2.3,-17.84 -6.91,-23.43 -4.61,-5.59 -11.39,-8.36 -20.33,-8.36 -6.71,0 -13.03,1.64 -18.96,4.94 -5.92,3.29 -11.58,7.69 -16.97,13.22l0 143.72 -61.21 0zm354.18 -160.04c-1.58,2.5 -3.23,4.21 -5,5.26 -1.77,1.05 -4.08,1.59 -6.85,1.59 -2.89,0 -5.78,-0.66 -8.68,-1.92 -2.89,-1.24 -5.98,-2.56 -9.34,-4.01 -3.36,-1.45 -7.17,-2.84 -11.38,-4.08 -4.21,-1.25 -9.01,-1.85 -14.41,-1.85 -7.76,0 -13.68,1.52 -17.83,4.47 -4.15,2.96 -6.26,7.04 -6.26,12.31 0,3.81 1.38,6.97 4.08,9.48 2.71,2.57 6.26,4.73 10.73,6.65 4.47,1.9 9.54,3.75 15.2,5.46 5.66,1.71 11.46,3.62 17.38,5.72 5.92,2.1 11.71,4.54 17.37,7.38 5.66,2.83 10.73,6.38 15.2,10.53 4.48,4.15 8.1,9.15 10.8,15.07 2.69,5.92 4.01,13.1 4.01,21.39 0,10.13 -1.84,19.47 -5.53,28.03 -3.69,8.56 -9.14,15.99 -16.45,22.18 -7.3,6.19 -16.32,10.99 -27.04,14.41 -10.73,3.42 -23.1,5.13 -37.05,5.13 -6.98,0 -13.95,-0.65 -20.93,-1.97 -6.98,-1.31 -13.69,-3.09 -20.21,-5.33 -6.51,-2.24 -12.56,-4.93 -18.09,-8.03 -5.53,-3.09 -10.26,-6.39 -14.21,-9.94l14.21 -22.64c1.71,-2.7 3.75,-4.74 6.12,-6.25 2.36,-1.58 5.46,-2.31 9.27,-2.31 3.56,0 6.78,0.8 9.61,2.37 2.84,1.59 5.86,3.29 9.15,5.14 3.29,1.85 7.18,3.55 11.58,5.14 4.41,1.58 9.94,2.37 16.65,2.37 4.74,0 8.75,-0.53 12.05,-1.51 3.29,-0.99 5.92,-2.31 7.89,-4.02 1.97,-1.71 3.42,-3.62 4.34,-5.73 0.92,-2.1 1.38,-4.27 1.38,-6.51 0,-4.08 -1.38,-7.44 -4.15,-10.07 -2.76,-2.63 -6.38,-4.93 -10.85,-6.84 -4.47,-1.91 -9.55,-3.68 -15.27,-5.33 -5.72,-1.65 -11.57,-3.48 -17.5,-5.59 -5.93,-2.1 -11.72,-4.68 -17.44,-7.63 -5.73,-2.97 -10.85,-6.72 -15.34,-11.25 -4.47,-4.54 -8.1,-10.07 -10.86,-16.65 -2.76,-6.58 -4.15,-14.55 -4.15,-23.89 0,-8.68 1.71,-16.98 5.07,-24.81 3.35,-7.83 8.36,-14.67 15.06,-20.59 6.72,-5.92 15.13,-10.66 25.27,-14.14 10.13,-3.49 21.98,-5.2 35.54,-5.2 7.37,0 14.54,0.64 21.45,1.97 6.91,1.31 13.36,3.23 19.41,5.6 6.06,2.36 11.58,5.2 16.58,8.49 5,3.22 9.41,6.78 13.23,10.66l-13.82 21.32zm105.82 -44.88l0 130.03c0,10.2 2.3,18.03 6.91,23.56 4.6,5.53 11.39,8.29 20.33,8.29 6.71,0 13.03,-1.38 18.88,-4.15 5.86,-2.76 11.52,-6.64 17.05,-11.65l0 -146.09 61.2 0 0 204.92 -37.91 0c-7.63,0 -12.63,-3.35 -15,-10.13l-3.75 -11.65c-3.94,3.75 -8.03,7.17 -12.23,10.2 -4.22,3.1 -8.69,5.67 -13.5,7.83 -4.8,2.11 -10,3.82 -15.53,5.07 -5.53,1.24 -11.58,1.84 -18.16,1.84 -11.19,0 -21.05,-1.97 -29.67,-5.86 -8.62,-3.88 -15.93,-9.28 -21.85,-16.25 -5.93,-6.97 -10.4,-15.27 -13.43,-24.75 -3.02,-9.47 -4.54,-19.87 -4.54,-31.19l0 -130.03 61.21 0zm234.93 -90.82l0 295.74 -61.21 0 0 -295.74 61.21 0zm121.22 298.89c-9.74,0 -18.3,-1.45 -25.73,-4.27 -7.43,-2.83 -13.68,-6.84 -18.75,-12.05 -5.06,-5.2 -8.95,-11.51 -11.57,-18.88 -2.65,-7.37 -3.96,-15.59 -3.96,-24.67l0 -105.96 -17.37 0c-3.16,0 -5.86,-0.99 -8.1,-3.03 -2.24,-1.97 -3.36,-4.93 -3.36,-8.81l0 -23.56 32.58 -6.39 12.04 -50.34c1.58,-6.38 6.05,-9.55 13.43,-9.55l31.98 0 0 59.83 49.74 0 0 41.85 -49.74 0 0 101.67c0,4.74 1.18,8.62 3.48,11.71 2.3,3.1 5.6,4.68 9.93,4.68 2.25,0 4.15,-0.27 5.66,-0.72 1.52,-0.47 2.83,-0.99 3.94,-1.58 1.13,-0.6 2.18,-1.12 3.16,-1.58 0.99,-0.46 2.11,-0.66 3.42,-0.66 1.85,0 3.36,0.4 4.48,1.25 1.12,0.92 2.24,2.24 3.43,4.08l18.56 29.22c-7.89,5.93 -16.78,10.33 -26.65,13.29 -9.87,2.97 -20.07,4.47 -30.6,4.47zm227.43 -3.16c-5.79,0 -10.14,-0.79 -13.1,-2.37 -2.96,-1.58 -5.46,-4.87 -7.44,-9.87l-4.34 -11.25c-5.13,4.34 -10.07,8.16 -14.8,11.45 -4.74,3.29 -9.61,6.06 -14.68,8.36 -5.07,2.31 -10.46,4.02 -16.19,5.14 -5.72,1.12 -12.11,1.71 -19.08,1.71 -9.35,0 -17.84,-1.24 -25.47,-3.69 -7.63,-2.43 -14.08,-5.98 -19.41,-10.79 -5.33,-4.74 -9.48,-10.66 -12.37,-17.7 -2.9,-7.04 -4.34,-15.2 -4.34,-24.48 0,-7.24 1.84,-14.68 5.53,-22.38 3.69,-7.63 10.06,-14.61 19.15,-20.86 9.08,-6.32 21.31,-11.51 36.72,-15.79 15.4,-4.22 34.81,-6.33 58.24,-6.33l0 -8.75c0,-12.11 -2.44,-20.87 -7.37,-26.19 -4.94,-5.4 -11.98,-8.1 -21.06,-8.1 -7.23,0 -13.17,0.79 -17.77,2.37 -4.6,1.58 -8.68,3.36 -12.3,5.33 -3.62,1.98 -7.17,3.75 -10.59,5.33 -3.42,1.58 -7.5,2.37 -12.24,2.37 -4.21,0 -7.76,-1.05 -10.72,-3.09 -2.97,-2.04 -5.33,-4.54 -7.04,-7.57l-11.05 -19.15c12.36,-10.99 26.12,-19.15 41.19,-24.54 15.07,-5.33 31.19,-8.03 48.44,-8.03 12.37,0 23.56,2.04 33.5,6.06 9.93,4.01 18.36,9.61 25.27,16.79 6.91,7.16 12.17,15.72 15.86,25.59 3.69,9.87 5.53,20.67 5.53,32.38l0 128.06 -28.03 0zm-70.28 -37.51c7.9,0 14.81,-1.38 20.73,-4.08 5.92,-2.7 11.91,-7.1 17.97,-13.23l0 -28.1c-12.24,0 -22.31,0.79 -30.21,2.36 -7.89,1.58 -14.14,3.56 -18.75,5.99 -4.6,2.37 -7.76,5.06 -9.55,8.09 -1.78,3.03 -2.69,6.39 -2.69,9.94 0,6.97 1.91,11.91 5.72,14.74 3.82,2.82 9.41,4.27 16.79,4.27zm141.75 37.51l0 -204.92 37.91 0c3.81,0 7.04,0.85 9.6,2.57 2.57,1.71 4.34,4.34 5.39,7.77l3.55 11.97c3.95,-3.74 8.03,-7.17 12.24,-10.33 4.21,-3.22 8.75,-5.93 13.55,-8.1 4.81,-2.17 10,-3.88 15.6,-5.13 5.6,-1.26 11.65,-1.9 18.23,-1.9 11.19,0 21.13,1.97 29.75,5.85 8.62,3.88 15.86,9.28 21.78,16.19 5.92,6.91 10.39,15.13 13.42,24.67 3.02,9.55 4.54,19.94 4.54,31.13l0 130.23 -61.2 0 0 -130.09c0,-10 -2.3,-17.84 -6.91,-23.43 -4.6,-5.59 -11.39,-8.36 -20.33,-8.36 -6.71,0 -13.03,1.64 -18.96,4.94 -5.92,3.29 -11.57,7.69 -16.97,13.22l0 143.72 -61.2 0z"/>
   <path class="fil0" d="M3289.55 947.27c-1.58,2.5 -3.22,4.21 -5,5.26 -1.77,1.05 -4.08,1.59 -6.84,1.59 -2.89,0 -5.78,-0.66 -8.69,-1.92 -2.89,-1.24 -5.98,-2.56 -9.34,-4.01 -3.36,-1.45 -7.17,-2.84 -11.39,-4.08 -4.21,-1.25 -9.01,-1.85 -14.41,-1.85 -7.76,0 -13.68,1.52 -17.83,4.47 -4.16,2.96 -6.26,7.04 -6.26,12.31 0,3.81 1.38,6.97 4.08,9.48 2.7,2.57 6.25,4.73 10.73,6.65 4.48,1.9 9.54,3.75 15.2,5.46 5.66,1.71 11.46,3.62 17.38,5.72 5.92,2.1 11.72,4.54 17.37,7.38 5.66,2.83 10.73,6.38 15.2,10.53 4.48,4.15 8.1,9.15 10.8,15.07 2.69,5.92 4.01,13.1 4.01,21.39 0,10.13 -1.84,19.47 -5.53,28.03 -3.69,8.56 -9.14,15.99 -16.45,22.18 -7.31,6.19 -16.32,10.99 -27.05,14.41 -10.73,3.42 -23.1,5.13 -37.05,5.13 -6.98,0 -13.95,-0.65 -20.92,-1.97 -6.98,-1.31 -13.69,-3.09 -20.21,-5.33 -6.52,-2.24 -12.57,-4.93 -18.09,-8.03 -5.53,-3.09 -10.27,-6.39 -14.22,-9.94l14.22 -22.64c1.71,-2.7 3.75,-4.74 6.12,-6.25 2.36,-1.58 5.45,-2.31 9.27,-2.31 3.56,0 6.78,0.8 9.61,2.37 2.83,1.59 5.86,3.29 9.15,5.14 3.29,1.85 7.18,3.55 11.58,5.14 4.41,1.58 9.94,2.37 16.65,2.37 4.74,0 8.75,-0.53 12.05,-1.51 3.29,-0.99 5.92,-2.31 7.9,-4.02 1.97,-1.71 3.41,-3.62 4.34,-5.73 0.92,-2.1 1.38,-4.27 1.38,-6.51 0,-4.08 -1.38,-7.44 -4.15,-10.07 -2.76,-2.63 -6.38,-4.93 -10.85,-6.84 -4.47,-1.91 -9.54,-3.68 -15.27,-5.33 -5.72,-1.65 -11.58,-3.48 -17.5,-5.59 -5.93,-2.1 -11.71,-4.68 -17.44,-7.63 -5.73,-2.97 -10.85,-6.72 -15.33,-11.25 -4.48,-4.54 -8.1,-10.07 -10.86,-16.65 -2.76,-6.58 -4.14,-14.55 -4.14,-23.89 0,-8.68 1.71,-16.98 5.07,-24.81 3.35,-7.83 8.36,-14.67 15.06,-20.59 6.72,-5.92 15.13,-10.66 25.27,-14.14 10.13,-3.49 21.98,-5.2 35.54,-5.2 7.37,0 14.54,0.64 21.45,1.97 6.91,1.31 13.36,3.23 19.41,5.6 6.06,2.36 11.58,5.2 16.58,8.49 5,3.22 9.41,6.78 13.23,10.66l-13.82 21.32z"/>
  </g>
  <path class="fil1" d="M3485.61 1010.2l0 96.52 -67.16 0 0 -289.16 102.13 0c20.4,0 37.95,2.44 52.59,7.27 14.64,4.82 26.69,11.49 36.16,19.95 9.47,8.46 16.42,18.43 20.93,29.99 4.5,11.5 6.76,23.98 6.76,37.33 0,14.4 -2.33,27.68 -6.96,39.7 -4.64,12.09 -11.73,22.4 -21.26,30.99 -9.54,8.59 -21.6,15.33 -36.24,20.15 -14.63,4.82 -31.98,7.27 -51.99,7.27l-34.97 0zm0 -50.74l34.97 0c17.49,0 30.07,-4.17 37.76,-12.49 7.68,-8.33 11.52,-19.95 11.52,-34.88 0,-6.6 -0.99,-12.61 -2.98,-18.03 -1.99,-5.42 -4.96,-10.11 -9,-14.01 -4.04,-3.9 -9.14,-6.87 -15.3,-8.99 -6.16,-2.11 -13.51,-3.17 -21.99,-3.17l-34.97 0 0 91.57zm300.44 147.45l-56.04 0 -79.87 -205.73 51.26 0c4.37,0 8.08,1.06 11.06,3.11 2.98,2.05 4.97,4.56 6.03,7.6l28.62 92.23c2.25,7.6 4.43,14.93 6.49,22.07 2.05,7.14 3.78,14.27 5.23,21.4 1.46,-7.13 3.24,-14.27 5.37,-21.4 2.12,-7.14 4.37,-14.47 6.75,-22.07l29.81 -92.23c1.06,-3.04 3.05,-5.55 5.96,-7.6 2.92,-2.05 6.36,-3.11 10.34,-3.11l48.88 0 -79.88 205.73zm178.04 3.17c-9.8,0 -18.41,-1.45 -25.9,-4.3 -7.48,-2.84 -13.77,-6.87 -18.88,-12.09 -5.1,-5.22 -9,-11.56 -11.66,-18.96 -2.65,-7.4 -3.97,-15.66 -3.97,-24.77l0 -106.37 -17.48 0c-3.18,0 -5.9,-0.99 -8.15,-3.04 -2.25,-1.98 -3.37,-4.95 -3.37,-8.85l0 -23.65 32.78 -6.41 12.12 -50.54c1.59,-6.41 6.1,-9.58 13.51,-9.58l32.19 0 0 60.05 50.07 0 0 42.02 -50.07 0 0 102.07c0,4.76 1.19,8.66 3.51,11.76 2.32,3.1 5.63,4.69 10,4.69 2.25,0 4.18,-0.26 5.7,-0.72 1.53,-0.46 2.85,-0.99 3.98,-1.59 1.12,-0.59 2.18,-1.12 3.18,-1.59 0.99,-0.46 2.12,-0.66 3.45,-0.66 1.85,0 3.37,0.4 4.5,1.25 1.12,0.93 2.25,2.25 3.44,4.1l18.68 29.33c-7.95,5.95 -16.89,10.37 -26.83,13.34 -9.93,2.97 -20.2,4.5 -30.8,4.5zm74.71 -34.29c0,-4.75 0.93,-9.18 2.72,-13.28 1.79,-4.1 4.24,-7.66 7.35,-10.7 3.11,-3.04 6.75,-5.48 11,-7.27 4.24,-1.78 8.87,-2.65 13.91,-2.65 4.9,0 9.47,0.86 13.71,2.65 4.24,1.78 7.95,4.23 11.13,7.27 3.18,3.04 5.7,6.6 7.48,10.7 1.79,4.1 2.65,8.52 2.65,13.28 0,4.76 -0.86,9.18 -2.65,13.35 -1.79,4.16 -4.31,7.79 -7.48,10.83 -3.18,3.04 -6.89,5.42 -11.13,7.14 -4.24,1.72 -8.81,2.57 -13.71,2.57 -5.04,0 -9.67,-0.86 -13.91,-2.57 -4.24,-1.72 -7.88,-4.1 -11,-7.14 -3.11,-3.04 -5.56,-6.67 -7.35,-10.83 -1.78,-4.17 -2.72,-8.59 -2.72,-13.35zm249.57 -22.39l107.3 0 0 53.51 -174.46 0 0 -288.97 67.16 0 0 235.46zm211.43 56.68c-9.8,0 -18.41,-1.45 -25.9,-4.3 -7.49,-2.84 -13.78,-6.87 -18.88,-12.09 -5.1,-5.22 -9,-11.56 -11.65,-18.96 -2.65,-7.4 -3.97,-15.66 -3.97,-24.77l0 -106.37 -17.49 0c-3.18,0 -5.89,-0.99 -8.15,-3.04 -2.25,-1.98 -3.37,-4.95 -3.37,-8.85l0 -23.65 32.78 -6.41 12.12 -50.54c1.59,-6.41 6.1,-9.58 13.52,-9.58l32.19 0 0 60.05 50.07 0 0 42.02 -50.07 0 0 102.07c0,4.76 1.19,8.66 3.51,11.76 2.32,3.1 5.63,4.69 10,4.69 2.25,0 4.17,-0.26 5.7,-0.72 1.53,-0.46 2.84,-0.99 3.97,-1.59 1.13,-0.59 2.18,-1.12 3.18,-1.59 0.99,-0.46 2.12,-0.66 3.45,-0.66 1.85,0 3.37,0.4 4.5,1.25 1.13,0.93 2.25,2.25 3.45,4.1l18.68 29.33c-7.95,5.95 -16.89,10.37 -26.83,13.34 -9.94,2.97 -20.2,4.5 -30.8,4.5zm231.29 -3.17c-3.84,0 -7.02,-0.86 -9.6,-2.57 -2.58,-1.72 -4.44,-4.3 -5.5,-7.73l-4.77 -15.66c-4.1,4.36 -8.41,8.33 -12.92,11.89 -4.5,3.56 -9.34,6.6 -14.57,9.18 -5.23,2.58 -10.86,4.56 -16.89,5.95 -6.03,1.38 -12.58,2.11 -19.6,2.11 -10.73,0 -20.66,-2.38 -29.81,-7.14 -9.14,-4.76 -17.02,-11.63 -23.64,-20.61 -6.63,-9.05 -11.79,-20.02 -15.57,-33.03 -3.78,-13.08 -5.7,-27.88 -5.7,-44.59 0,-15.33 2.12,-29.53 6.36,-42.74 4.24,-13.15 10.26,-24.51 18.01,-34.09 7.75,-9.58 17.02,-17.11 27.88,-22.53 10.86,-5.42 22.85,-8.13 35.97,-8.13 10.6,0 19.6,1.59 26.95,4.76 7.35,3.17 13.98,7.33 19.94,12.49l0 -104.45 61.6 0 0 296.89 -38.16 0zm-62.39 -44.06c4.5,0 8.61,-0.4 12.26,-1.26 3.64,-0.86 6.95,-2.11 10,-3.7 3.05,-1.59 5.96,-3.57 8.68,-5.95 2.71,-2.38 5.37,-5.15 8.01,-8.33l0 -87.27c-4.77,-5.15 -9.8,-8.79 -15.17,-10.84 -5.37,-2.05 -11.06,-3.11 -17.02,-3.11 -5.7,0 -10.93,1.12 -15.7,3.37 -4.77,2.25 -8.88,5.88 -12.39,10.84 -3.51,4.96 -6.29,11.36 -8.28,19.36 -1.99,7.93 -2.98,17.51 -2.98,28.74 0,10.83 0.8,20.01 2.38,27.41 1.59,7.4 3.85,13.41 6.69,17.97 2.85,4.56 6.22,7.79 10.2,9.78 3.97,1.98 8.41,2.97 13.31,2.97zm136.31 12.94c0,-4.75 0.93,-9.18 2.72,-13.28 1.79,-4.1 4.24,-7.66 7.35,-10.7 3.11,-3.04 6.75,-5.48 11,-7.27 4.24,-1.78 8.87,-2.65 13.9,-2.65 4.9,0 9.48,0.86 13.71,2.65 4.24,1.78 7.95,4.23 11.13,7.27 3.18,3.04 5.7,6.6 7.48,10.7 1.79,4.1 2.65,8.52 2.65,13.28 0,4.76 -0.86,9.18 -2.65,13.35 -1.79,4.16 -4.3,7.79 -7.48,10.83 -3.18,3.04 -6.89,5.42 -11.13,7.14 -4.24,1.72 -8.81,2.57 -13.71,2.57 -5.03,0 -9.67,-0.86 -13.9,-2.57 -4.24,-1.72 -7.88,-4.1 -11,-7.14 -3.12,-3.04 -5.56,-6.67 -7.35,-10.83 -1.79,-4.17 -2.72,-8.59 -2.72,-13.35z"/>
 </g>
</svg>
